<svg width="112" height="95" viewBox="0 0 112 95" fill="none" xmlns="http://www.w3.org/2000/svg">
<path fill-rule="evenodd" clip-rule="evenodd" d="M109.245 23.9371C91.7407 64.8147 48.3058 75.2509 7.45488 69.2718C6.75305 69.1704 6.09871 69.6598 5.99798 70.3661C5.89725 71.0724 6.38356 71.7307 7.0854 71.8321C49.08 77.9811 93.6119 66.9821 111.606 24.959C111.888 24.3049 111.586 23.5443 110.933 23.26C110.283 22.9766 109.527 23.2798 109.245 23.9371Z" fill="#FDB12E"/>
<path fill-rule="evenodd" clip-rule="evenodd" d="M8.03634 70.6647C10.1425 69.8435 12.7971 68.8423 13.0951 68.7199C21.1695 65.4014 28.2995 61.0003 35.0373 55.3984C35.5847 54.9444 35.6613 54.1268 35.2102 53.5759C34.759 53.025 33.9467 52.948 33.3992 53.402C26.8673 58.8364 19.9535 63.1065 12.1208 66.3245C11.6644 66.5124 5.69555 68.7593 4.52255 69.3049C4.04038 69.5264 3.83597 69.8025 3.79388 69.8723C3.55647 70.2341 3.55167 70.5674 3.59775 70.8232C3.65195 71.1116 3.85675 71.5656 4.3955 71.9137C4.96076 72.2757 6.30984 72.7341 6.64111 72.8775C11.6333 75.055 17.3934 77.0476 22.34 79.9767C27.0574 82.7696 31.0397 86.4188 32.7219 92.0335C32.9261 92.7172 33.646 93.1039 34.3254 92.8985C35.0048 92.693 35.3892 91.9686 35.185 91.2849C33.3029 85.008 28.9172 80.868 23.6457 77.7465C18.728 74.8353 13.0312 72.8193 8.03634 70.6647Z" fill="#FDB12E"/>
</svg>
