<svg>
    <svg width="18" height="18" viewBox="0 0 18 18" fill="none" id="ic-shop" xmlns="http://www.w3.org/2000/svg">
        <path d="M14.43 4.18492H14.13L11.595 1.64992C11.3925 1.44742 11.0625 1.44742 10.8525 1.64992C10.65 1.85242 10.65 2.18242 10.8525 2.39242L12.645 4.18492H5.355L7.1475 2.39242C7.35 2.18992 7.35 1.85992 7.1475 1.64992C6.945 1.44742 6.615 1.44742 6.405 1.64992L3.8775 4.18492H3.5775C2.9025 4.18492 1.5 4.18492 1.5 6.10492C1.5 6.83242 1.65 7.31242 1.965 7.62742C2.145 7.81492 2.3625 7.91242 2.595 7.96492C2.8125 8.01742 3.045 8.02492 3.27 8.02492H14.73C14.9625 8.02492 15.18 8.00992 15.39 7.96492C16.02 7.81492 16.5 7.36492 16.5 6.10492C16.5 4.18492 15.0975 4.18492 14.43 4.18492Z" fill="currentColor"/>
        <path d="M14.288 9H3.65298C3.18798 9 2.83548 9.4125 2.91048 9.87L3.54048 13.725C3.75048 15.015 4.31298 16.5 6.81048 16.5H11.018C13.5455 16.5 13.9955 15.2325 14.2655 13.815L15.023 9.8925C15.113 9.4275 14.7605 9 14.288 9ZM9.00048 14.625C7.24548 14.625 5.81298 13.1925 5.81298 11.4375C5.81298 11.13 6.06798 10.875 6.37548 10.875C6.68298 10.875 6.93798 11.13 6.93798 11.4375C6.93798 12.5775 7.86048 13.5 9.00048 13.5C10.1405 13.5 11.063 12.5775 11.063 11.4375C11.063 11.13 11.318 10.875 11.6255 10.875C11.933 10.875 12.188 11.13 12.188 11.4375C12.188 13.1925 10.7555 14.625 9.00048 14.625Z" fill="currentColor"/>
    </svg>
    
    <svg width="18" height="18" viewBox="0 0 18 18" id="ic-user" fill="none" xmlns="http://www.w3.org/2000/svg">
        <path d="M9 1.5C7.035 1.5 5.4375 3.0975 5.4375 5.0625C5.4375 6.99 6.945 8.55 8.91 8.6175C8.97 8.61 9.03 8.61 9.075 8.6175C9.09 8.6175 9.0975 8.6175 9.1125 8.6175C9.12 8.6175 9.12 8.6175 9.1275 8.6175C11.0475 8.55 12.555 6.99 12.5625 5.0625C12.5625 3.0975 10.965 1.5 9 1.5Z" fill="currentColor"/>
        <path d="M12.8107 10.6127C10.7182 9.21766 7.3057 9.21766 5.1982 10.6127C4.2457 11.2502 3.7207 12.1127 3.7207 13.0352C3.7207 13.9577 4.2457 14.8127 5.1907 15.4427C6.2407 16.1477 7.6207 16.5002 9.0007 16.5002C10.3807 16.5002 11.7607 16.1477 12.8107 15.4427C13.7557 14.8052 14.2807 13.9502 14.2807 13.0202C14.2732 12.0977 13.7557 11.2427 12.8107 10.6127Z" fill="currentColor"/>
    </svg>
    
    <svg width="18" height="18" viewBox="0 0 18 18" id="ic-chat" fill="none" xmlns="http://www.w3.org/2000/svg">
        <path d="M8.24969 1.49268C4.52219 1.49268 1.49219 4.52268 1.49219 8.25018C1.49219 11.9777 4.52219 15.0077 8.24969 15.0077C11.9772 15.0077 15.0072 11.9777 15.0072 8.25018C15.0072 4.52268 11.9772 1.49268 8.24969 1.49268ZM8.24969 9.93768H5.99969C5.69219 9.93768 5.43719 9.68268 5.43719 9.37518C5.43719 9.06768 5.69219 8.81268 5.99969 8.81268H8.24969C8.55719 8.81268 8.81219 9.06768 8.81219 9.37518C8.81219 9.68268 8.55719 9.93768 8.24969 9.93768ZM10.4997 7.68768H5.99969C5.69219 7.68768 5.43719 7.43268 5.43719 7.12518C5.43719 6.81768 5.69219 6.56268 5.99969 6.56268H10.4997C10.8072 6.56268 11.0622 6.81768 11.0622 7.12518C11.0622 7.43268 10.8072 7.68768 10.4997 7.68768Z" fill="currentColor"/>
        <path d="M16.4921 14.2125C16.2446 13.755 15.7196 13.5 15.0146 13.5C14.4821 13.5 14.0246 13.7175 13.7546 14.0925C13.4846 14.4675 13.4246 14.97 13.5896 15.4725C13.9121 16.4475 14.4746 16.665 14.7821 16.7025C14.8271 16.71 14.8721 16.71 14.9246 16.71C15.2546 16.71 15.7646 16.5675 16.2596 15.825C16.6571 15.2475 16.7321 14.67 16.4921 14.2125Z" fill="currentColor"/>
    </svg>



</svg>