<svg>
    <svg id="ic-envato" xmlns="http://www.w3.org/2000/svg" version="1.1" xmlns:xlink="http://www.w3.org/1999/xlink"
        xmlns:svgjs="http://svgjs.com/svgjs" x="0" y="0" viewBox="0 0 511 511.99913"
        style="enable-background:new 0 0 512 512" xml:space="preserve">
        <g>
            <path xmlns="http://www.w3.org/2000/svg"
                d="m93.390625 155.570312c-.953125-11.726562-7.578125-20.636718-17.296875-23.261718-9.65625-2.621094-19.695312 1.570312-26.21875 10.964844-55.632812 80.121093-54.3125 151.4375-43.394531 197.175781 23.136719 97 111.351562 171.550781 216.875 171.550781 158.09375 0 239.359375-144.785156 226.035156-317.386719-6.054687-78.394531-34.28125-171.976562-81.96875-189.972656-31.847656-11.957031-82.90625-.367187-130.171875 29.679687-37.679688 23.929688-124.058594 94.855469-143.390625 241.074219-9.597656-28.179687-6.328125-72.695312-2.066406-102.019531 1.214843-8.382812 1.945312-13.453125 1.597656-17.804688zm0 0"
                fill="currentColor" data-original="currentColor"></path>
        </g>
    </svg>

    <svg viewBox="0 0 34 32" fill="none" id="customersupport" width="34px" height="32px"
        xmlns="http://www.w3.org/2000/svg">
        <g>
            <path
                d="M9.23305 22.0115C8.75784 21.5201 7.93188 21.4515 7.4001 21.8629L7.38879 21.8515L6.16682 23.0858C5.89528 23.3601 5.74819 23.7143 5.74819 24.0915C5.73687 24.8572 6.40443 25.5429 7.1625 25.5201C7.60376 25.5315 7.99977 25.3029 8.29395 24.9715L9.23305 24.0229C9.42539 23.8286 9.56117 23.5772 9.61774 23.3029C9.71957 22.8458 9.57248 22.3429 9.23305 22.0115Z"
                fill="currentColor" />
            <path
                d="M5.83852 17.8175C5.28411 17.2575 4.39026 17.2575 3.83585 17.8175C3.7114 17.9432 2.91938 18.7432 2.77229 18.8917C1.49376 20.286 3.39459 22.206 4.77496 20.9146C4.77496 20.9146 5.70274 19.9775 5.83852 19.8403C6.39293 19.2803 6.39293 18.3775 5.83852 17.8175Z"
                fill="currentColor" />
            <path
                d="M12.1297 25.2686C11.7563 25.2686 11.3942 25.4171 11.1227 25.6914L10.0591 26.7657L10.0478 26.7771C9.51604 27.3143 9.51604 28.2628 10.0591 28.7886C10.6135 29.3486 11.5074 29.3486 12.0618 28.7886L13.1367 27.7028C14.0192 26.8228 13.3856 25.2686 12.1297 25.2686Z"
                fill="currentColor" />
            <path
                d="M21.6337 9.39487C19.45 10.7892 16.5195 10.5263 14.6074 8.6063L12.1295 6.10344L15.2184 2.98344C11.9032 -0.776559 6.05364 -1.01656 2.52352 2.57201C-1.01791 6.1263 -0.791616 12.0234 2.93085 15.3834C5.63501 13.852 8.97278 15.9892 8.74649 19.1092C10.5342 19.3034 12.0616 20.9492 12.1408 22.7549C13.8267 22.7206 15.5012 23.9892 15.9086 25.6806C17.3115 25.3034 18.8843 25.772 19.846 26.892L19.8799 26.8577C21.2716 27.7034 22.7538 25.9663 21.7016 24.6977C21.6789 24.6749 16.0783 19.0177 16.0783 19.0177C16.5195 18.572 17.4021 17.6806 17.8433 17.2349L23.41 22.8577C24.7904 24.1492 26.6912 22.2292 25.4127 20.8349L19.846 15.212C20.2873 14.7663 21.1698 13.8749 21.611 13.4292C22.867 14.6977 25.8992 17.7606 27.1778 19.052C27.7095 19.612 28.6486 19.6006 29.1804 19.052C29.7348 18.492 29.7348 17.5892 29.1804 17.0292L21.6337 9.39487Z"
                fill="currentColor" />
            <path
                d="M31.4556 2.57165C28.0725 -0.845497 22.5511 -0.845497 19.168 2.57165C18.5118 3.2345 16.2942 5.4745 15.6719 6.10307L16.3847 6.82307C17.618 8.06879 19.6206 8.06879 20.8539 6.82307L21.7364 5.93165C22.2116 6.41165 30.8333 15.1202 31.0822 15.3716C34.7933 12.0116 35.0083 6.12593 31.4556 2.57165Z"
                fill="currentColor" />
            <path
                d="M17.9117 28.4805C17.3573 27.9205 16.4635 27.9205 15.9091 28.4805L14.8455 29.5548C14.2911 30.092 14.2911 31.0405 14.8455 31.5777C15.3773 32.1263 16.3164 32.1263 16.8482 31.5777L17.9117 30.5034C18.4548 29.9777 18.4548 29.0177 17.9117 28.4805Z"
                fill="currentColor" />
        </g>
    </svg>

    <svg id="speedperformance" viewBox="0 0 32 32" fill="none" xmlns="http://www.w3.org/2000/svg">
        <g>
            <path
                d="M10.3748 25.3042C11.9194 26.7033 13.9871 27.5523 16.2493 27.5523C21.0536 27.5523 24.9456 23.7257 24.9456 19.0022C24.9821 14.3146 21.1387 10.488 16.371 10.4521C16.3345 10.4521 16.298 10.4521 16.2615 10.4521C13.2816 10.4521 10.6545 11.923 9.09768 14.1711H1.13113C0.510832 14.1711 0 14.6734 0 15.2832C0 15.8931 0.510832 16.3953 1.13113 16.3953H7.96655C7.73546 17.1009 7.60167 17.8542 7.56518 18.6196H2.6393C2.019 18.6196 1.50817 19.1218 1.50817 19.7317C1.50817 20.3415 2.019 20.8438 2.6393 20.8438H7.75979C7.94223 21.633 8.22197 22.3864 8.61117 23.068H1.13113C0.510832 23.0919 0 23.5822 0 24.204C0 24.8139 0.510832 25.3161 1.13113 25.3161H10.2045C10.2653 25.3161 10.3261 25.3042 10.3748 25.3042ZM16.1764 16.7661C16.4439 16.7661 16.7237 16.8019 16.9791 16.8976L18.5238 15.5702C18.9981 15.1637 19.7157 15.2115 20.1292 15.6779C20.5428 16.1442 20.4941 16.8498 20.0198 17.2563L18.4751 18.5717C18.4994 18.7152 18.5238 18.8468 18.5238 18.9903C18.5481 20.2459 17.5264 21.2743 16.2615 21.2862C14.9966 21.2982 13.9384 20.3057 13.9263 19.062C13.8898 17.8184 14.8993 16.79 16.1764 16.7661Z"
                fill="currentColor" />
            <path
                d="M30.7852 3.61164L25.689 0.406858C24.4606 -0.358463 22.8186 -0.0116767 22.0402 1.1961L21.2253 2.4517C20.4469 3.65947 20.7996 5.27382 22.0281 6.03915L23.6214 7.04363L23.0862 7.86874C18.7563 5.29774 13.1128 5.29774 8.68559 8.32315C8.17476 8.66994 8.04097 9.37547 8.40585 9.87771C8.75857 10.38 9.47617 10.5115 9.987 10.1527C13.7453 7.58175 18.7441 7.58175 22.5146 10.1527C27.4769 13.5489 28.7054 20.2693 25.2512 25.1483C21.797 30.0272 14.9615 31.235 9.99916 27.8388C9.48833 27.4921 8.7829 27.6116 8.41802 28.1139C8.0653 28.6161 8.18692 29.3097 8.69776 29.6684C10.9114 31.1871 13.5507 32.0003 16.2508 32.0003C18.9509 32.0003 21.5902 31.1871 23.8038 29.6684C29.8 25.5668 31.2717 17.4592 27.0999 11.5638C26.4674 10.6669 25.7255 9.86575 24.9228 9.17218L25.5309 8.22749L27.1242 9.23197C28.3526 9.99729 29.9824 9.65051 30.773 8.44273L31.5879 7.18713C32.3785 5.97935 32.0136 4.37696 30.7852 3.61164Z"
                fill="currentColor" />
        </g>
    </svg>


    <svg id="moveeffect" viewBox="0 0 32 32" fill="none" xmlns="http://www.w3.org/2000/svg">
        <g>
            <path
                d="M32 22.2613C32 22.5707 31.7973 22.8267 31.52 22.9227L25.0453 25.0453L22.9227 31.52C22.8267 31.7973 22.5707 32 22.2613 32C21.9627 32 21.7173 31.808 21.6107 31.552L16.0427 16.9493C16.0107 16.864 16 16.7893 16 16.6933C16 16.3093 16.3093 16 16.6933 16C16.7787 16 16.864 16.0107 16.9387 16.0533L31.552 21.6213C31.808 21.7067 32 21.9627 32 22.2613Z"
                fill="currentColor" />
            <path
                d="M14.6667 29.3333C6.58133 29.3333 0 22.752 0 14.6667C0 6.58133 6.58133 0 14.6667 0C22.752 0 29.3333 6.58133 29.3333 14.6667C29.3333 15.3173 29.2907 15.9573 29.2053 16.576C29.1093 17.3013 28.4373 17.8133 27.7013 17.7173C26.976 17.6213 26.464 16.9387 26.56 16.2133C26.624 15.7227 26.656 15.2 26.656 14.6667C26.6667 8.05333 21.28 2.66667 14.6667 2.66667C8.05333 2.66667 2.66667 8.05333 2.66667 14.6667C2.66667 21.28 8.05333 26.6667 14.6667 26.6667C15.1893 26.6667 15.712 26.6347 16.2133 26.56C16.9387 26.4533 17.6107 26.976 17.7173 27.7013C17.8133 28.4267 17.3013 29.0987 16.576 29.2053C15.9573 29.2907 15.3173 29.3333 14.6667 29.3333Z"
                fill="currentColor" />
            <path
                d="M14.0365 22.6455C13.9939 22.6455 13.9512 22.6455 13.9085 22.6455C9.76986 22.2615 6.64453 18.8375 6.64453 14.6668C6.64453 10.2508 10.2392 6.64551 14.6659 6.64551C18.8365 6.64551 22.2712 9.77084 22.6445 13.9202C22.7085 14.6562 22.1645 15.3068 21.4392 15.3708C20.6925 15.4242 20.0632 14.8908 19.9885 14.1655C19.7432 11.4028 17.4499 9.31217 14.6659 9.31217C11.7112 9.31217 9.3112 11.7122 9.3112 14.6668C9.3112 17.4402 11.3912 19.7335 14.1539 19.9895C14.8899 20.0535 15.4232 20.7042 15.3592 21.4402C15.2952 22.1228 14.7085 22.6455 14.0365 22.6455Z"
                fill="currentColor" />
        </g>
    </svg>


    <svg id="swiperslider" viewBox="0 0 35 32" fill="none" xmlns="http://www.w3.org/2000/svg">
        <g>
            <path
                d="M20.7814 27.6354H14.2177C12.8125 27.6354 11.6641 26.4962 11.6641 25.0882V12.7298C11.6641 11.3282 12.8061 10.1826 14.2177 10.1826H20.7814C22.1865 10.1826 23.335 11.3218 23.335 12.7298V25.0882C23.3286 26.4962 22.1865 27.6354 20.7814 27.6354Z"
                fill="currentColor" />
            <path
                d="M8.02027 23.2699C7.57756 23.2699 7.14126 23.0715 6.85253 22.6875L4.66463 19.7755C4.27325 19.2571 4.27325 18.5467 4.66463 18.0283L6.85253 15.1163C7.33374 14.4763 8.25125 14.3419 8.89286 14.8283C9.53448 15.3083 9.66921 16.2235 9.18159 16.8635L7.65455 18.8987L9.188 20.9339C9.66921 21.5739 9.54089 22.4891 8.89928 22.9691C8.6298 23.1803 8.32824 23.2699 8.02027 23.2699Z"
                fill="currentColor" />
            <path
                d="M26.9747 23.2708C26.6732 23.2708 26.3652 23.1748 26.1022 22.9828C25.4605 22.5028 25.3258 21.5876 25.8134 20.9476L27.3469 18.9124L25.8134 16.8772C25.3322 16.2372 25.4605 15.322 26.1022 14.842C26.7438 14.3556 27.6613 14.49 28.1425 15.13L30.3304 18.042C30.7218 18.5604 30.7218 19.2708 30.3304 19.7892L28.1425 22.7012C27.8602 23.0724 27.4239 23.2708 26.9747 23.2708Z"
                fill="currentColor" />
            <path
                d="M30.6242 0H4.3758C1.96334 0 0 1.9584 0 4.3648V27.6352C0 30.0416 1.96334 32 4.3758 32H30.6242C33.0367 32 35 30.0416 35 27.6352V4.3648C35 1.9584 33.0367 0 30.6242 0ZM30.6242 29.088H4.3758C3.57379 29.088 2.91934 28.4352 2.91934 27.6352V7.2704H32.0807V27.6352C32.0807 28.4416 31.4262 29.088 30.6242 29.088Z"
                fill="currentColor" />
        </g>
    </svg>


    <svg id="browsercompability" viewBox="0 0 34 34" fill="none" xmlns="http://www.w3.org/2000/svg">
        <g>
            <path
                d="M21.6353 18.5413C21.3747 28.56 18.5413 34 17 34C15.4587 34 12.6593 28.56 12.3647 18.5413H21.6353ZM17 0C15.4587 0 12.6593 5.44 12.3647 15.4587H21.6353C21.3407 5.44 18.5413 0 17 0ZM24.7293 15.4587H34C33.3313 8.44333 28.424 2.57267 21.6353 0.68C23.5393 4.20467 24.5367 9.74667 24.7293 15.4587ZM9.27067 18.5413H0C0.668667 25.5567 5.576 31.4273 12.3647 33.32C10.4607 29.7953 9.46333 24.2533 9.27067 18.5413ZM24.7293 18.5413C24.5707 24.242 23.5733 29.7953 21.726 33.32C28.4693 31.3933 33.3427 25.534 34 18.5413H24.7293ZM9.27067 15.4587C9.42933 9.74667 10.4267 4.20467 12.274 0.68C5.55333 2.62933 0.714 8.48867 0.0793333 15.4587H9.27067Z"
                fill="currentColor" />
        </g>
    </svg>


    <svg id="paralaxeffect" viewBox="0 0 34 32" fill="none" xmlns="http://www.w3.org/2000/svg">
        <g>
            <path
                d="M0 9.84828C0 4.40828 4.34934 0 9.71662 0C11.7416 0 13.625 0.628965 15.1819 1.70483C13.293 3.8731 12.1444 6.72552 12.1444 9.84828C12.1444 10.1848 12.1553 10.5214 12.1825 10.8524C8.91098 12.2869 6.37976 15.1393 5.35639 18.6483C2.17739 17.0317 0 13.6938 0 9.84828Z"
                fill="currentColor" />
            <path
                d="M7.6543 19.4702C8.40005 16.7943 10.2345 14.5819 12.646 13.3516C13.1522 15.0895 14.0286 16.6619 15.1826 17.986C13.6258 19.0619 11.7424 19.6909 9.71738 19.6909C9.00972 19.6909 8.3184 19.6136 7.6543 19.4702Z"
                fill="currentColor" />
            <path
                d="M26.7164 22.1521C26.7164 22.0693 26.7164 21.9866 26.711 21.9038C25.9271 22.0638 25.1161 22.1521 24.2832 22.1521C21.5506 22.1521 19.0248 21.2362 16.9998 19.6914C14.9694 21.2362 12.4491 22.1521 9.71644 22.1521C8.88359 22.1521 8.07251 22.0693 7.28865 21.9038C7.28865 21.9866 7.2832 22.0693 7.2832 22.1521C7.2832 27.5921 11.6325 32.0004 16.9998 32.0004C22.3671 32.0004 26.7164 27.5921 26.7164 22.1521Z"
                fill="currentColor" />
            <path
                d="M34.0002 9.84828C34.0002 13.6993 31.8228 17.0317 28.6438 18.6483C27.615 15.1393 25.0893 12.2869 21.8177 10.8524C21.8449 10.5214 21.8558 10.1848 21.8558 9.84828C21.8558 6.72552 20.7072 3.87862 18.8184 1.70483C20.3806 0.628965 22.2586 0 24.2891 0C29.6509 0 34.0002 4.40828 34.0002 9.84828Z"
                fill="currentColor" />
            <path
                d="M26.3526 19.4702C25.6068 16.7943 23.7723 14.5819 21.3609 13.3516C20.8546 15.0895 19.9782 16.6619 18.8242 17.986C20.3811 19.0619 22.2645 19.6909 24.2895 19.6909C24.9971 19.6909 25.683 19.6136 26.3526 19.4702Z"
                fill="currentColor" />
            <path
                d="M17.0006 16.3582C17.9477 15.2714 18.6608 13.9638 19.0637 12.5293C18.3996 12.3858 17.7082 12.3086 17.0006 12.3086C16.2929 12.3086 15.6016 12.3858 14.9375 12.5293C15.3403 13.9638 16.0534 15.2714 17.0006 16.3582Z"
                fill="currentColor" />
            <path
                d="M17.0005 9.84824C17.8333 9.84824 18.6444 9.93099 19.4283 10.0965C19.4283 10.0138 19.4337 9.93099 19.4337 9.84824C19.4337 7.34893 18.5192 5.0703 17.0059 3.33789C15.4926 5.07582 14.5781 7.35444 14.5781 9.84824C14.5781 9.93099 14.5781 10.0138 14.5836 10.0965C15.3565 9.93099 16.1676 9.84824 17.0005 9.84824Z"
                fill="currentColor" />
        </g>
    </svg>


    <svg id="smoothtransition" viewBox="0 0 32 32" fill="none" xmlns="http://www.w3.org/2000/svg">
        <g>
            <path
                d="M32 17.6V30.4C32 31.2873 31.2873 32 30.4 32H17.6C16.7127 32 16 31.2873 16 30.4V17.6C16 16.7127 16.7127 16 17.6 16H30.4C31.2873 16 32 16.7127 32 17.6ZM8 6.4C7.11273 6.4 6.4 7.11273 6.4 8V22.4C6.4 23.2873 7.11273 24 8 24H12.8V13.6C12.8 13.1636 13.1636 12.8 13.6 12.8H24V8C24 7.11273 23.2873 6.4 22.4 6.4H8ZM1.6 17.6H3.2V4C3.2 3.56364 3.56364 3.2 4 3.2H17.6V1.6C17.6 0.712727 16.8873 0 16 0H1.6C0.712727 0 0 0.712727 0 1.6V16C0 16.8873 0.712727 17.6 1.6 17.6Z"
                fill="currentColor" />
        </g>
    </svg>


    <svg id="developerfriendly" viewBox="0 0 32 32" fill="none" xmlns="http://www.w3.org/2000/svg">
        <g>
            <path
                d="M12.0053 0C8.33367 0 5.33984 2.99382 5.33984 6.66549C5.33984 10.3372 8.33367 13.331 12.0053 13.331C15.677 13.331 18.6708 10.3372 18.6708 6.66549C18.6708 2.99382 15.677 0 12.0053 0Z"
                fill="currentColor" />
            <path
                d="M22.1063 31.9717C21.5697 31.8494 21.2307 31.3127 21.3531 30.7761L23.349 22.1053C23.4714 21.5687 24.008 21.2298 24.5447 21.3522C25.0813 21.4745 25.4202 22.0112 25.2978 22.5478L23.3019 31.2186C23.1796 31.774 22.6241 32.0941 22.1063 31.9717Z"
                fill="currentColor" />
            <path
                d="M27.6684 30.663C27.3954 30.663 27.1223 30.55 26.9246 30.3335C26.5575 29.9193 26.5857 29.2885 26.9999 28.9213L29.5042 26.6618L26.9999 24.4024C26.5857 24.0352 26.5575 23.4044 26.9246 22.9902C27.2918 22.5759 27.9226 22.5477 28.3368 22.9149L31.6695 25.9181C31.8767 26.1064 31.9991 26.3794 31.9991 26.6618C31.9991 26.9443 31.8767 27.2173 31.6695 27.4056L28.3368 30.4088C28.1391 30.5783 27.9037 30.663 27.6684 30.663Z"
                fill="currentColor" />
            <path
                d="M18.9987 30.663C18.7633 30.663 18.5185 30.5783 18.3302 30.4088L14.9975 27.4056C14.7904 27.2173 14.668 26.9443 14.668 26.6618C14.668 26.3794 14.7904 26.1064 14.9975 25.9181L18.3302 22.9149C18.7445 22.5477 19.3752 22.5759 19.7424 22.9902C20.1096 23.4044 20.0813 24.0352 19.6671 24.4024L17.1628 26.6618L19.6671 28.9213C20.0813 29.2885 20.1096 29.9193 19.7424 30.3335C19.5447 30.55 19.2717 30.663 18.9987 30.663Z"
                fill="currentColor" />
            <path
                d="M12.333 26.6618C12.333 25.6262 12.7755 24.6377 13.5381 23.941L16.8708 20.9377C17.5487 20.3258 18.4148 19.9963 19.3186 19.9963C20.0718 19.9963 20.7967 20.2317 21.3992 20.6553C21.87 19.7703 22.6608 19.1113 23.6022 18.8289C22.4631 17.1249 20.5331 15.9951 18.3301 15.9951H6.33598C2.84319 15.9951 0 18.8383 0 22.3311V27.6597C0 28.2152 0.451898 28.6577 0.99794 28.6577H12.945C12.559 28.074 12.333 27.3867 12.333 26.6618Z"
                fill="currentColor" />
        </g>
    </svg>


    <svg id="contactform7" viewBox="0 0 34 32" fill="none" xmlns="http://www.w3.org/2000/svg">
        <g>
            <path fill-rule="evenodd" clip-rule="evenodd"
                d="M9.36842 1.83148C9.81579 1.83148 10.1842 2.1876 10.1842 2.62003C10.1842 3.05246 9.82895 3.4213 9.36842 3.4213C8.90789 3.4213 8.55263 3.06518 8.55263 2.62003C8.55263 2.17488 8.92105 1.83148 9.36842 1.83148ZM2.23684 0C1.01316 0 0 0.979332 0 2.16216V5.24006H34V2.16216C34 0.966614 32.9868 0 31.7632 0H2.23684ZM6.22368 1.83148C6.67105 1.83148 7.03947 2.1876 7.03947 2.62003C7.03947 3.05246 6.67105 3.4213 6.22368 3.4213C5.77632 3.4213 5.39474 3.06518 5.39474 2.62003C5.39474 2.17488 5.76316 1.83148 6.22368 1.83148ZM3.06579 1.83148C3.51316 1.83148 3.88158 2.1876 3.88158 2.62003C3.88158 3.05246 3.52632 3.4213 3.06579 3.4213C2.60526 3.4213 2.25 3.06518 2.25 2.62003C2.25 2.17488 2.61842 1.83148 3.06579 1.83148Z"
                fill="currentColor" />
            <path fill-rule="evenodd" clip-rule="evenodd"
                d="M0 5.8252V29.8379C0 31.0335 1.01316 32.0001 2.23684 32.0001H31.75C32.9868 32.0001 33.9868 31.0207 33.9868 29.8379V5.8252H0ZM7.56579 10.8109C8.60526 10.8109 9.44737 11.6249 9.44737 12.6296C9.44737 13.6344 8.60526 14.4484 7.56579 14.4484C6.52632 14.4484 5.68421 13.6344 5.68421 12.6296C5.68421 11.6249 6.52632 10.8109 7.56579 10.8109ZM7.56579 16.14C8.23684 16.14 8.82895 15.7966 9.1579 15.2878C10.1447 15.4023 10.9211 16.229 10.9211 17.2211V19.167H4.21053V17.2211C4.21053 16.229 4.98684 15.415 5.97368 15.2878C6.30263 15.8093 6.89474 16.14 7.56579 16.14ZM5.01316 22.3467H10.1316L9.05263 23.2497L8.11842 24.0382L7.76316 24.3435C7.71053 24.3816 7.64474 24.4071 7.59211 24.4071C7.52632 24.4071 7.46053 24.3816 7.42105 24.3435L7.02632 24.0382L6.09211 23.2497L5.01316 22.3467ZM9.43421 23.6694L10.6184 22.6773V25.8061L9.43421 24.8141L8.75 24.2417L9.43421 23.6694ZM5.69737 23.6694L6.38158 24.2417L5.69737 24.8141L4.51316 25.8061V22.6773L5.69737 23.6694ZM6.82895 24.6233L7 24.7632C7.1579 24.9031 7.36842 24.9667 7.56579 24.9667C7.76316 24.9667 7.96053 24.9031 8.13158 24.7632L8.30263 24.6233L9.05263 25.2465L10.1316 26.1495H5.01316L6.09211 25.2465L6.82895 24.6233ZM12.8684 13.1765H29.7895V16.8141H12.8684V13.1765ZM12.8684 22.4357H29.7895V26.0732H12.8684V22.4357Z"
                fill="currentColor" />
        </g>
    </svg>


    <svg id="solidiconpacks" viewBox="0 0 34 28" fill="none" xmlns="http://www.w3.org/2000/svg">
        <g>
            <path
                d="M33.9064 13.1874L31.4026 23.3135C30.7006 26.0688 28.2202 27.9763 25.4123 27.9763H21.6449C19.6091 27.9763 17.6201 27.5053 15.7949 26.5869L15.1397 26.2336C13.7825 25.5743 12.3317 25.1268 10.8341 24.9384V10.3615L17.5967 1.29503C18.6965 -0.141474 20.7323 -0.424065 22.1597 0.659198C23.2595 1.50697 23.7275 2.94347 23.2829 4.28578L21.6449 9.3253H30.9112C32.6194 9.3253 34 10.7147 34 12.4338C34 12.6928 33.9766 12.9519 33.9064 13.1874ZM7.72195 24.8678V10.8796C7.72195 10.0318 7.01996 9.3253 6.17756 9.3253H1.54439C0.701996 9.3253 0 10.0318 0 10.8796V24.8678C0 25.7155 0.701996 26.422 1.54439 26.422H6.17756C7.04336 26.422 7.72195 25.7391 7.72195 24.8678Z"
                fill="currentColor" />
        </g>
    </svg>


    <svg id="animationeffect" viewBox="0 0 32 32" fill="none" xmlns="http://www.w3.org/2000/svg">
        <g>
            <path
                d="M21.6895 14.9084C24.2795 14.9084 26.3791 12.8088 26.3791 10.2188C26.3791 7.62888 24.2795 5.5293 21.6895 5.5293C19.0996 5.5293 17 7.62888 17 10.2188C17 12.8088 19.0996 14.9084 21.6895 14.9084Z"
                fill="currentColor" />
            <path
                d="M15.5276 23.0992C14.4295 24.1973 14.4295 25.9801 15.5276 27.0782C16.6257 28.1763 18.4085 28.1763 19.5066 27.0782L28.9761 17.5053C33.1618 13.3196 33.0714 6.22719 28.2139 2.23526C24.1703 -1.08488 17.9693 -0.658561 14.0936 3.21709L4.92123 12.4928C3.82313 13.5909 3.82313 15.3737 4.92123 16.4718C6.01934 17.5699 7.80214 17.5699 8.90024 16.4718L10.9027 14.3661C11.2902 13.9785 11.8587 14.0431 12.1945 14.4048C12.595 14.8311 12.5692 15.3608 12.2075 15.7096L7.55668 20.4508C6.45858 21.5489 6.45858 23.3317 7.55668 24.4298C8.65478 25.528 10.4376 25.528 11.5357 24.4298L16.1865 19.6886C16.4578 19.4173 16.8453 19.3398 17.2071 19.5078C17.8142 19.792 17.9951 20.5413 17.53 21.0064L15.5276 23.0992ZM17.052 14.857C14.4941 12.299 14.4941 8.13918 17.052 5.58124C19.61 3.02331 23.7698 3.02331 26.3278 5.58124C28.8857 8.13918 28.8857 12.299 26.3278 14.857C23.7698 17.4149 19.61 17.4149 17.052 14.857Z"
                fill="currentColor" />
            <path
                d="M4.80649 31.186L6.2534 29.7391C7.3515 28.641 7.3515 26.8582 6.2534 25.7601C5.1553 24.662 3.3725 24.662 2.27439 25.7601L0.827483 27.207C-0.270619 28.3051 -0.270619 30.0879 0.827483 31.186C1.92559 32.2712 3.70839 32.2712 4.80649 31.186Z"
                fill="currentColor" />
        </g>
    </svg>


    <svg id="mailchimp" viewBox="0 0 30 32" fill="none" xmlns="http://www.w3.org/2000/svg">
        <g>
            <path
                d="M22.5743 15.1235C22.8023 15.0908 23.0303 15.0908 23.242 15.1235C23.356 14.8453 23.3886 14.387 23.2746 13.8632C23.1117 13.0939 22.9 12.6356 22.4603 12.7174C22.0205 12.7829 22.0043 13.3394 22.1671 14.1087C22.2323 14.5343 22.3951 14.8944 22.5743 15.1235Z"
                fill="currentColor" />
            <path
                d="M18.7626 15.7295C19.072 15.8769 19.2675 15.9587 19.3489 15.8769C19.3977 15.8278 19.3815 15.7295 19.3 15.5986C19.1372 15.3367 18.8277 15.0748 18.4857 14.9439C17.7854 14.6492 16.9548 14.7474 16.3196 15.2058C16.1078 15.3694 15.9124 15.5822 15.945 15.7132C15.9613 15.7623 15.9938 15.795 16.059 15.795C16.2381 15.8114 16.8407 15.5004 17.5411 15.4676C18.046 15.4349 18.4531 15.5822 18.7626 15.7295Z"
                fill="currentColor" />
            <path
                d="M18.1276 16.0904C17.7204 16.1558 17.4924 16.2868 17.3458 16.4177C17.2155 16.5323 17.1504 16.6469 17.1504 16.7287C17.1504 16.7615 17.1667 16.7942 17.183 16.8106C17.1993 16.8269 17.2318 16.8433 17.2481 16.8433C17.3458 16.8433 17.5576 16.7615 17.5576 16.7615C18.1276 16.5487 18.5185 16.5814 18.8931 16.6305C19.1048 16.6469 19.2025 16.6632 19.2514 16.5978C19.2677 16.5814 19.2839 16.5323 19.2351 16.4668C19.1211 16.2868 18.6976 16.0249 18.1276 16.0904Z"
                fill="currentColor" />
            <path
                d="M21.2877 17.4317C21.5645 17.5627 21.874 17.5136 21.9717 17.3171C22.0694 17.1044 21.9229 16.8261 21.646 16.6952C21.3691 16.5642 21.0597 16.6133 20.9619 16.8097C20.8642 17.0225 21.0108 17.3008 21.2877 17.4317Z"
                fill="currentColor" />
            <path
                d="M23.0953 15.8604C22.8673 15.8604 22.6719 16.1059 22.6719 16.4169C22.6719 16.7279 22.851 16.9898 23.079 16.9898C23.3071 16.9898 23.5025 16.7442 23.5025 16.4332C23.5025 16.1059 23.3233 15.8604 23.0953 15.8604Z"
                fill="currentColor" />
            <path
                d="M7.80207 21.5078C7.75321 21.4424 7.65549 21.4587 7.55777 21.4751C7.49262 21.4915 7.42747 21.5078 7.34604 21.5078C7.18317 21.5078 7.03659 21.426 6.95516 21.3114C6.85744 21.1477 6.85744 20.9186 6.97145 20.6403C6.98773 20.6076 7.00402 20.5585 7.02031 20.5257C7.19946 20.1165 7.50891 19.4291 7.16689 18.7743C6.9063 18.2833 6.48285 17.9723 5.97796 17.9068C5.48936 17.8413 4.98448 18.0214 4.67503 18.3815C4.17014 18.938 4.08871 19.7073 4.18643 19.9692C4.219 20.0674 4.28415 20.1002 4.31672 20.1002C4.39816 20.1165 4.52845 20.0511 4.60988 19.8383C4.60988 19.8219 4.62617 19.8055 4.62617 19.7728C4.65874 19.6582 4.72389 19.4454 4.8379 19.2817C4.96819 19.0853 5.16363 18.938 5.40793 18.8889C5.65223 18.8398 5.89653 18.8889 6.10826 19.0199C6.46656 19.249 6.59686 19.691 6.45028 20.1002C6.36884 20.3129 6.23855 20.7222 6.27112 21.0659C6.31998 21.7534 6.74343 22.0152 7.11803 22.048C7.47633 22.0644 7.73692 21.8516 7.80207 21.7043C7.85093 21.5897 7.81835 21.5406 7.80207 21.5078Z"
                fill="currentColor" />
            <path
                d="M28.8282 20.2636C28.8119 20.2145 28.7304 19.8871 28.6002 19.4779C28.4699 19.0851 28.3396 18.7904 28.3396 18.7904C28.8445 18.0375 28.8445 17.3664 28.7793 16.9899C28.7142 16.5152 28.5187 16.1224 28.1278 15.6968C27.737 15.2876 26.9389 14.862 25.7989 14.5347C25.6686 14.5019 25.2451 14.3874 25.2125 14.371C25.2125 14.3382 25.18 12.9633 25.1637 12.3741C25.1474 11.9485 25.1148 11.2774 24.9031 10.6226C24.6588 9.73876 24.2353 8.95308 23.6979 8.44566C25.18 6.90705 26.092 5.22111 26.092 3.76433C26.092 0.965357 22.6718 0.130575 18.4699 1.88198C18.4699 1.88198 17.5904 2.25845 17.5741 2.25845C17.5741 2.25845 15.9617 0.670728 15.9454 0.65436C11.1409 -3.53592 -3.85913 13.2252 0.929148 17.2845L1.97149 18.1848C1.69462 18.8886 1.5969 19.707 1.67833 20.5746C1.79234 21.6876 2.36237 22.7679 3.29071 23.6027C4.17019 24.3884 5.34283 24.8958 6.46661 24.8794C8.33957 29.2007 12.5904 31.8523 17.5904 31.9996C22.9487 32.1633 27.4601 29.6262 29.3331 25.0922C29.4634 24.7812 29.9845 23.3408 29.9845 22.0641C30.0008 20.7874 29.2842 20.2636 28.8282 20.2636ZM6.89006 23.6682C6.72719 23.7009 6.56433 23.7009 6.40146 23.7009C4.78908 23.6518 3.03013 22.195 2.85097 20.46C2.65553 18.5449 3.63273 17.0554 5.35912 16.7116C5.57084 16.6625 5.81514 16.6462 6.09201 16.6625C7.05293 16.7117 8.48615 17.4646 8.81188 19.5925C9.10504 21.4585 8.64902 23.3572 6.89006 23.6682ZM5.08224 15.5495C4.00732 15.7623 3.0627 16.3679 2.47638 17.2191C2.13436 16.9408 1.48289 16.3679 1.36889 16.1551C0.456835 14.3874 2.39495 10.95 3.74674 9.00219C7.0855 4.20628 12.3298 0.572518 14.7565 1.22725C15.1474 1.34183 16.4503 2.86408 16.4503 2.86408C16.4503 2.86408 14.0236 4.22265 11.7761 6.105C8.74674 8.44566 6.45032 11.8503 5.08224 15.5495ZM11.2712 8.98582C12.4601 7.61088 13.9096 6.39963 15.2288 5.72853C15.2777 5.71216 15.3265 5.76127 15.294 5.794C15.1962 5.99042 14.9845 6.39963 14.9357 6.71063C14.9194 6.75973 14.9682 6.79247 15.0171 6.75973C15.8314 6.20321 17.2484 5.59758 18.5024 5.53211C18.5513 5.53211 18.5839 5.59758 18.535 5.63032C18.3396 5.77763 18.1441 5.97405 17.9813 6.18684C17.9487 6.21958 17.9813 6.26868 18.0301 6.26868C18.9096 6.26868 20.1311 6.57968 20.9454 7.03799C20.9943 7.07073 20.9617 7.16894 20.8966 7.15257C19.6751 6.87431 17.6881 6.66152 15.6197 7.16894C13.7793 7.62725 12.3624 8.31472 11.3363 9.06766C11.2875 9.1004 11.2223 9.03492 11.2712 8.98582ZM28.8933 22.4897C28.6653 23.9137 28.0627 25.0595 27.0529 26.1234C26.434 26.7945 25.7011 27.3674 24.8379 27.7766C24.3819 28.0221 23.9096 28.2186 23.3884 28.3822C19.5936 29.6262 15.7011 28.2513 14.4471 25.3214C14.3493 25.0922 14.2679 24.8631 14.2028 24.6339C13.6653 22.6861 14.1213 20.3618 15.5383 18.905C15.6197 18.8068 15.7174 18.7086 15.7174 18.5613C15.7174 18.4467 15.6523 18.3157 15.5871 18.2339C15.0985 17.5137 13.3721 16.2861 13.7142 13.8963C13.9585 12.1776 15.4568 10.9827 16.8412 11.0482C16.9552 11.0482 17.0692 11.0646 17.1995 11.0646C17.8021 11.0973 18.3233 11.1792 18.8282 11.1955C19.6588 11.2283 20.408 11.1137 21.2875 10.3771C21.5806 10.1316 21.8249 9.91881 22.2321 9.83697C22.2809 9.83697 22.3787 9.78786 22.5904 9.80423C22.8021 9.8206 23.0138 9.86971 23.193 10.0007C23.9096 10.4753 24.0073 11.6211 24.0399 12.4559C24.0562 12.9306 24.1213 14.0927 24.1376 14.4201C24.1865 15.173 24.3819 15.2876 24.7891 15.4186C25.0171 15.5004 25.2288 15.5495 25.5383 15.6313C26.4829 15.8932 27.0366 16.1715 27.3787 16.5152C27.5904 16.728 27.6881 16.9572 27.7207 17.17C27.8347 17.9884 27.1018 18.9868 25.1474 19.8871C23.0138 20.8856 20.4243 21.1311 18.6327 20.9347C18.5024 20.9183 18.0138 20.8692 18.0138 20.8692C16.5806 20.6728 15.7663 22.5388 16.6295 23.7991C17.1832 24.6175 18.6816 25.1577 20.1962 25.1577C23.649 25.1577 26.3037 23.6682 27.2972 22.3914C27.3298 22.3587 27.3298 22.3423 27.3787 22.2769C27.4275 22.195 27.3949 22.1623 27.3298 22.2114C26.5155 22.7679 22.9324 24.9776 19.105 24.3065C19.105 24.3065 18.6327 24.2247 18.2093 24.061C17.8673 23.9301 17.1669 23.6027 17.0855 22.8661C20.18 23.8319 22.1344 22.9152 22.1344 22.9152C22.1669 22.8989 22.1995 22.8661 22.1832 22.817C22.1832 22.7679 22.1344 22.7352 22.0855 22.7352C22.0855 22.7352 19.5448 23.1116 17.1506 22.2278C17.4112 21.3766 18.1116 21.6876 19.1539 21.7695C21.0432 21.884 22.737 21.6058 23.991 21.2457C25.0822 20.9347 26.4992 20.3127 27.6067 19.4452C27.9813 20.2636 28.1116 21.1802 28.1116 21.1802C28.1116 21.1802 28.4047 21.1311 28.649 21.2784C28.8282 21.4421 29.0073 21.7367 28.8933 22.4897Z"
                fill="currentColor" />
        </g>
    </svg>

    <svg id="woocommerce" viewBox="0 0 38 23" fill="none" xmlns="http://www.w3.org/2000/svg">
        <g>
        <path fill-rule="evenodd" clip-rule="evenodd" d="M3.54587 0H34.4554C36.4136 0 38 1.62172 38.0012 3.62189V15.5099C38.0012 17.51 36.4136 19.1317 34.4554 19.1317H23.4734L24.7751 23L18.2553 19.1317H3.54587C1.58768 19.1317 0 17.51 0 15.5099V3.62189C0 1.62172 1.58768 0 3.54587 0ZM5.51073 17.3232H5.52689C5.94712 17.3232 6.34249 17.1162 6.58742 16.767C7.43161 15.5631 8.93476 12.6194 10.0773 10.2954C10.1159 10.416 10.1557 10.5392 10.1955 10.6624C11.1279 13.5248 12.1922 15.5809 13.3609 16.7746C13.7289 17.1505 14.2809 17.2661 14.7646 17.0705C15.2482 16.8737 15.5715 16.4025 15.5864 15.8717C15.5889 15.7892 15.8462 7.58657 17.5657 3.985C17.8815 3.32463 17.6129 2.5271 16.9652 2.20454C16.3174 1.88197 15.5366 2.15628 15.2208 2.81792C14.1392 5.08224 13.5722 8.68126 13.2788 11.5158C12.4844 9.52197 11.9249 7.32496 11.7085 6.26964C11.5942 5.71086 11.1441 5.28797 10.5896 5.21939C10.0351 5.15081 9.49921 5.45052 9.25677 5.96485C8.59534 7.37068 7.09468 10.4833 5.86507 12.7984C5.66241 11.9349 5.41997 10.7741 5.13525 9.21845C4.64877 6.55694 4.28245 4.0529 4.27021 3.96919L4.26992 3.96722C4.163 3.23954 3.50032 2.73792 2.78792 2.84586C2.07551 2.95508 1.58441 3.63196 1.69009 4.35964L1.69036 4.36148C1.70238 4.44361 2.07747 7.00683 2.57531 9.7277C3.514 14.8608 4.06975 16.1714 4.44771 16.7403C4.68767 17.101 5.08428 17.3182 5.51073 17.3232ZM25.7702 6.08295C25.2269 4.95651 24.2944 4.17676 23.076 3.83134C21.686 3.43766 20.1803 3.96087 19.0477 5.2359C17.7025 6.7446 16.7227 9.57277 18.0008 12.98C18.8761 15.3155 20.2537 15.7434 21.1439 15.7434C21.2396 15.7434 21.3291 15.7384 21.4124 15.7307C23.7809 15.5009 25.7702 12.3006 26.1531 10.1061C26.4279 8.53268 26.2986 7.17892 25.7702 6.08295ZM23.5845 9.63626C23.4639 10.322 23.0436 11.23 22.5128 11.9476C21.9669 12.6867 21.4323 13.0512 21.165 13.0765C21.0022 13.0931 20.7013 12.7362 20.4352 12.025C19.9006 10.6002 19.7203 8.43363 20.976 7.02525C21.3503 6.6049 21.7854 6.36742 22.1597 6.36742C22.2355 6.36742 22.3076 6.37631 22.376 6.39663C23.7735 6.79412 23.8045 8.37775 23.5845 9.63626ZM34.3638 4.66442C34.8164 5.04287 35.1856 5.52037 35.4579 6.08295C35.9851 7.17892 36.1131 8.53268 35.8396 10.1061C35.4567 12.3006 33.4674 15.5009 31.1002 15.7307C31.0181 15.7384 30.9261 15.7434 30.8304 15.7434C29.9402 15.7434 28.5626 15.3155 27.6873 12.98C26.4105 9.57277 27.3914 6.7446 28.7342 5.2359C29.8681 3.96087 31.3737 3.43766 32.7625 3.83134C33.3717 4.00532 33.9088 4.28598 34.3638 4.66442ZM32.2005 11.9476C32.7301 11.23 33.1516 10.322 33.271 9.63626C33.491 8.37775 33.4612 6.79412 32.065 6.39663C31.9941 6.37631 31.922 6.36742 31.8462 6.36742C31.4732 6.36742 31.038 6.6049 30.6625 7.02525C29.4081 8.43363 29.5871 10.6002 30.1217 12.025C30.3878 12.7362 30.6899 13.0931 30.8515 13.0765C31.1188 13.0512 31.6534 12.6867 32.2005 11.9476Z" fill="currentColor"/>
        </g>
    </svg>



    <svg id="oneclickinstall" viewBox="0 0 23 32" fill="none" xmlns="http://www.w3.org/2000/svg">
        <g>
            <path
                d="M3.28333 10.4471V7.34118C3.28333 5.13882 5.05541 3.34118 7.22645 3.34118C9.39749 3.34118 11.1696 5.13882 11.1696 7.34118V10.0047C11.3087 10.0047 11.4386 10.0329 11.5685 10.0518C12.5334 8.98824 13.1365 7.56706 13.1365 6.00471C13.1458 2.68235 10.4923 0 7.22645 0C3.96062 0 1.31641 2.68235 1.31641 6.00471C1.31641 7.77412 2.08647 9.34588 3.28333 10.4471Z"
                fill="currentColor" />
            <path
                d="M21.0331 14.6636C19.9476 14.6636 19.0569 15.5577 19.0569 16.6683V16.9977C19.0569 17.186 18.9084 17.3271 18.7322 17.3271C18.5559 17.3271 18.4074 17.1766 18.4074 16.9977V15.3319C18.4074 14.2307 17.526 13.3271 16.4312 13.3271C15.3457 13.3271 14.455 14.2213 14.455 15.3319V16.9977C14.455 17.186 14.3066 17.3271 14.1303 17.3271C13.954 17.3271 13.8056 17.1766 13.8056 16.9977V13.9954C13.8056 12.8942 12.9242 11.9907 11.8294 11.9907C10.7346 11.9907 9.85317 12.8848 9.85317 13.9954V16.9977C9.85317 17.186 9.70472 17.3271 9.52844 17.3271C9.35216 17.3271 9.20371 17.1766 9.20371 16.9977V7.33185C9.20371 6.23068 8.32231 5.32715 7.22751 5.32715C6.13271 5.32715 5.26059 6.23068 5.26059 7.33185V19.3319C4.89875 19.3319 4.60186 19.0307 4.60186 18.6636V16.0001H3.9524C1.79064 16.0001 0 17.7695 0 19.9624C0.00927793 27.0024 5.05647 32.0001 8.16458 32.0001H16.4312C20.0589 32.0001 23 29.0166 23 25.3366V16.6683C23 15.5671 22.1186 14.6636 21.0331 14.6636Z"
                fill="currentColor" />
        </g>
    </svg>

    <svg id="googlefonts" viewBox="0 0 38 38" fill="none" xmlns="http://www.w3.org/2000/svg">
        <path
            d="M34.4208 17.5278C34.3416 16.7203 33.6608 16.1186 32.8533 16.1186H20.8991C20.0283 16.1186 19.3158 16.8311 19.3158 17.702V20.4095C19.3158 21.2803 20.0283 21.9928 20.8991 21.9928H28.0399C27.8658 23.4495 26.9158 25.6503 24.8099 27.1228C23.4641 28.057 21.6749 28.7062 19.3158 28.7062C19.2049 28.7062 19.1099 28.7061 18.9991 28.6903C14.9616 28.5636 11.5416 25.8562 10.3066 22.1353C9.9741 21.1378 9.78409 20.0928 9.78409 19.0003C9.78409 17.9078 9.97409 16.847 10.2908 15.8653C10.3858 15.5803 10.4966 15.2953 10.6233 15.0103C12.0799 11.7328 15.2624 9.42117 18.9991 9.31033C19.0941 9.2945 19.2049 9.29448 19.3158 9.29448C21.5799 9.29448 23.2741 10.0386 24.4616 10.862C25.0791 11.2895 25.9024 11.1945 26.4408 10.672L28.6416 8.51867C29.3383 7.83783 29.2749 6.68197 28.4833 6.11197C25.9658 4.25947 22.8941 3.16699 19.3158 3.16699C19.2049 3.16699 19.1099 3.16701 18.9991 3.18284C12.9349 3.29367 7.72575 6.80867 5.17659 11.8912C4.09992 14.0445 3.48242 16.4512 3.48242 19.0003C3.48242 21.5495 4.09992 23.9561 5.17659 26.1095H5.19242C7.74159 31.192 12.9508 34.707 18.9991 34.8178C19.1099 34.8336 19.2049 34.8337 19.3158 34.8337C23.5908 34.8337 27.1849 33.4245 29.7974 31.002C32.7899 28.2311 34.5158 24.1778 34.5158 19.3487C34.5158 18.6678 34.4841 18.082 34.4208 17.5278Z"
            fill="currentColor" />
    </svg>


    <svg id="elementor" viewBox="0 0 28 28" fill="none" xmlns="http://www.w3.org/2000/svg">
        <path d="M0 0H5.59767V28H0V0Z" fill="currentColor" />
        <path d="M11.1953 22.4023H28V28H11.1953V22.4023Z" fill="currentColor" />
        <path d="M11.1953 11.1955H28V16.7932H11.1953V11.1955Z" fill="currentColor" />
        <path d="M11.1953 0H28V5.59767H11.1953V0Z" fill="currentColor" /> 
    </svg>
</svg>